<svg xmlns="http://www.w3.org/2000/svg" viewBox="0 0 24 24" id="More">
    <g fill="none" fill-rule="evenodd">
        <path opacity="0.9"
              fill="#637381" fill-rule="nonzero" d="M3.95866617,2.06054839 C4.78317621,2.01676399 5.63026437,1.99645128 6.49993064,1.99961026 C7.37458395,2.00278736 8.22108538,2.02961352 9.03943495,2.08008875 C10.0420694,2.1419495 10.8432634,2.93792851 10.9116514,3.94013895 C10.96811,4.76752835 10.9975133,5.62066233 10.9998613,6.4995409 C11.0022153,7.38068135 10.9746088,8.23594452 10.9170419,9.06533043 C10.8476543,10.0647036 10.0496015,10.8585888 9.04987732,10.922721 C8.20270075,10.9770672 7.35271853,11.0026507 6.49993064,10.9994715 C5.6435732,10.9962791 4.78440086,10.9640826 3.92241362,10.9028822 C2.91772499,10.8315483 2.12283971,10.0242203 2.06712,9.01854482 C2.02237333,8.21091977 2,7.3712518 2,6.4995409 C2,5.6240066 2.02257003,4.77365845 2.06771009,3.94849645 C2.1234919,2.92866126 2.93874364,2.11470987 3.95866617,2.06054839 Z M3.95866617,13.0605484 C4.78317621,13.016764 5.63026437,12.9964513 6.49993064,12.9996103 C7.37458395,13.0027874 8.22108538,13.0296135 9.03943495,13.0800887 C10.0420694,13.1419495 10.8432634,13.9379285 10.9116514,14.940139 C10.96811,15.7675283 10.9975133,16.6206623 10.9998613,17.4995409 C11.0022153,18.3806813 10.9746088,19.2359445 10.9170419,20.0653304 C10.8476543,21.0647036 10.0496015,21.8585888 9.04987732,21.922721 C8.20270075,21.9770672 7.35271853,22.0026507 6.49993064,21.9994715 C5.6435732,21.9962791 4.78440086,21.9640826 3.92241362,21.9028822 C2.91772499,21.8315483 2.12283971,21.0242203 2.06712,20.0185448 C2.02237333,19.2109198 2,18.3712518 2,17.4995409 C2,16.6240066 2.02257003,15.7736584 2.06771009,14.9484965 C2.1234919,13.9286613 2.93874364,13.1147099 3.95866617,13.0605484 Z M14.9586662,2.06054839 C15.7831762,2.01676399 16.6302644,1.99645128 17.4999306,1.99961026 C18.3745839,2.00278736 19.2210854,2.02961352 20.039435,2.08008875 C21.0420694,2.1419495 21.8432634,2.93792851 21.9116514,3.94013895 C21.96811,4.76752835 21.9975133,5.62066233 21.9998613,6.4995409 C22.0022153,7.38068135 21.9746088,8.23594452 21.9170419,9.06533043 C21.8476543,10.0647036 21.0496015,10.8585888 20.0498773,10.922721 C19.2027008,10.9770672 18.3527185,11.0026507 17.4999306,10.9994715 C16.6435732,10.9962791 15.7844009,10.9640826 14.9224136,10.9028822 C13.917725,10.8315483 13.1228397,10.0242203 13.06712,9.01854482 C13.0223733,8.21091977 13,7.3712518 13,6.4995409 C13,5.6240066 13.02257,4.77365845 13.0677101,3.94849645 C13.1234919,2.92866126 13.9387436,2.11470987 14.9586662,2.06054839 Z M17.5,22 C15.0147186,22 13,19.9852814 13,17.5 C13,15.0147186 15.0147186,13 17.5,13 C19.9852814,13 22,15.0147186 22,17.5 C22,19.9852814 19.9852814,22 17.5,22 Z M17.5,20 C18.8807119,20 20,18.8807119 20,17.5 C20,16.1192881 18.8807119,15 17.5,15 C16.1192881,15 15,16.1192881 15,17.5 C15,18.8807119 16.1192881,20 17.5,20 Z" class="color577ee8 svgShape"></path><path fill="#b0c4d7" fill-opacity=".1" fill-rule="nonzero" d="M10.7394061,3.25319134 C10.5238298,3.15578917 10.2878134,3.09541325 10.039435,3.08008875 C9.22108538,3.02961352 8.37458395,3.00278736 7.49993064,2.99961026 C6.63026437,2.99645128 5.78317621,3.01676399 4.95866617,3.06054839 C3.93874364,3.11470987 3.1234919,3.92866126 3.06771009,4.94849645 C3.02257003,5.77365845 3,6.6240066 3,7.4995409 C3,8.3712518 3.02237333,9.21091977 3.06712,10.0185448 C3.08113116,10.2714298 3.14188054,10.5117731 3.24095132,10.7310261 C2.57797452,10.4315236 2.10943171,9.78222155 2.06712,9.01854482 C2.02237333,8.21091977 2,7.3712518 2,6.4995409 C2,5.6240066 2.02257003,4.77365845 2.06771009,3.94849645 C2.1234919,2.92866126 2.93874364,2.11470987 3.95866617,2.06054839 C4.78317621,2.01676399 5.63026437,1.99645128 6.49993064,1.99961026 C7.37458395,2.00278736 8.22108538,2.02961352 9.03943495,2.08008875 C9.79825882,2.12690682 10.4416992,2.5942217 10.7394061,3.25319134 Z M10.7394061,14.2531913 C10.5238298,14.1557892 10.2878134,14.0954133 10.039435,14.0800887 C9.22108538,14.0296135 8.37458395,14.0027874 7.49993064,13.9996103 C6.63026437,13.9964513 5.78317621,14.016764 4.95866617,14.0605484 C3.93874364,14.1147099 3.1234919,14.9286613 3.06771009,15.9484965 C3.02257003,16.7736584 3,17.6240066 3,18.4995409 C3,19.3712518 3.02237333,20.2109198 3.06712,21.0185448 C3.08113116,21.2714298 3.14188054,21.5117731 3.24095132,21.7310261 C2.57797452,21.4315236 2.10943171,20.7822215 2.06712,20.0185448 C2.02237333,19.2109198 2,18.3712518 2,17.4995409 C2,16.6240066 2.02257003,15.7736584 2.06771009,14.9484965 C2.1234919,13.9286613 2.93874364,13.1147099 3.95866617,13.0605484 C4.78317621,13.016764 5.63026437,12.9964513 6.49993064,12.9996103 C7.37458395,13.0027874 8.22108538,13.0296135 9.03943495,13.0800887 C9.79825882,13.1269068 10.4416992,13.5942217 10.7394061,14.2531913 Z M21.7394061,3.25319134 C21.5238298,3.15578917 21.2878134,3.09541325 21.039435,3.08008875 C20.2210854,3.02961352 19.3745839,3.00278736 18.4999306,2.99961026 C17.6302644,2.99645128 16.7831762,3.01676399 15.9586662,3.06054839 C14.9387436,3.11470987 14.1234919,3.92866126 14.0677101,4.94849645 C14.02257,5.77365845 14,6.6240066 14,7.4995409 C14,8.3712518 14.0223733,9.21091977 14.06712,10.0185448 C14.0811312,10.2714298 14.1418805,10.5117731 14.2409513,10.7310261 C13.5779745,10.4315236 13.1094317,9.78222155 13.06712,9.01854482 C13.0223733,8.21091977 13,7.3712518 13,6.4995409 C13,5.6240066 13.02257,4.77365845 13.0677101,3.94849645 C13.1234919,2.92866126 13.9387436,2.11470987 14.9586662,2.06054839 C15.7831762,2.01676399 16.6302644,1.99645128 17.4999306,1.99961026 C18.3745839,2.00278736 19.2210854,2.02961352 20.039435,2.08008875 C20.7982588,2.12690682 21.4416992,2.5942217 21.7394061,3.25319134 Z" class="color000000 svgShape">

</path></g></svg>