<svg xmlns="http://www.w3.org/2000/svg" enable-background="new 0 0 24 24" viewBox="0 0 24 24" id="rss-feed">
    <path opacity="0.9"
        d="M5,16c-1.7,0-3,1.3-3,3s1.3,3,3,3s3-1.3,3-3S6.7,16,5,16z M5,12c-0.6,0-1,0.4-1,1s0.4,1,1,1c2.8,0,5,2.2,5,5
	c0,0.6,0.4,1,1,1s1-0.4,1-1C12,15.1,8.9,12,5,12z M15.6,8.4C12.8,5.6,9,4,5,4C4.4,4,4,4.4,4,5s0.4,1,1,1c3.4,0,6.7,1.4,9.2,3.8
	c2.4,2.4,3.8,5.7,3.8,9.2c0,0.6,0.4,1,1,1s1-0.4,1-1C20,15,18.4,11.2,15.6,8.4z M5,8L5,8C4.4,8,4,8.4,4,9s0.4,1,1,1c5,0,9,4,9,9v0
	c0,0.6,0.4,1,1,1s1-0.4,1-1C16,12.9,11.1,8,5,8z" fill="#637381" className="color000000 svgShape"></path>
</svg>