<svg xmlns="http://www.w3.org/2000/svg"
     enable-background="new 0 0 24 24" viewBox="0 0 24 24" id="shipping-truck">
    <path opacity="0.9"
            d="M22.9,12.4l-2.4-3.2C19.9,8.4,19,8,18.1,8h-2V6c0-1.7-1.3-3-3-3h-9c-1.7,0-3,1.3-3,3v12c0,0.6,0.4,1,1,1h1c0,1.7,1.3,3,3,3
	s3-1.3,3-3h6c0,1.7,1.3,3,3,3s3-1.3,3-3h1c0.6,0,1-0.4,1-1v-5C23.1,12.8,23,12.6,22.9,12.4z M6.1,20c-0.6,0-1-0.4-1-1
	c0-0.6,0.4-1,1-1s1,0.4,1,1C7.1,19.6,6.6,20,6.1,20z M18.1,20c-0.6,0-1-0.4-1-1c0-0.6,0.4-1,1-1s1,0.4,1,1
	C19.1,19.6,18.6,20,18.1,20z M16.1,12v-2h2c0.3,0,0.6,0.1,0.8,0.4l1.2,1.6H16.1z" fill="#637381" class="color000000 svgShape"></path>
</svg>