<svg xmlns="http://www.w3.org/2000/svg" enable-background="new 0 0 24 24" viewBox="0 0 24 24" id="users">
    <path opacity="0.9"
            d="M8.5,11.5c2.2,0,4-1.8,4-4s-1.8-4-4-4s-4,1.8-4,4S6.3,11.5,8.5,11.5z M13,10.6c1.7,1.4,4.2,1.1,5.6-0.6
	C20,8.3,19.7,5.8,18,4.4c-0.7-0.6-1.6-0.9-2.5-0.9c-0.9,0-1.8,0.3-2.5,0.9c1.7,1.4,2,3.8,0.6,5.6C13.5,10.2,13.2,10.4,13,10.6z
	 M22.9,19.4c-0.6-3.7-3.7-6.4-7.4-6.4c-0.9,0-1.7,0.1-2.5,0.4c2.6,0.9,4.5,3.2,4.9,5.9c0.1,0.5-0.3,1.1-0.9,1.1c0,0-0.1,0-0.1,0h5
	c0.6,0,1-0.4,1-1C22.9,19.5,22.9,19.4,22.9,19.4z M8.5,13c-3.7,0-6.9,2.7-7.4,6.4c-0.1,0.5,0.3,1.1,0.9,1.1c0,0,0.1,0,0.1,0h12.8
	c0.6,0,1-0.4,1-1c0,0,0-0.1,0-0.1C15.4,15.7,12.2,13,8.5,13z" fill="#637381" class="color000000 svgShape">
    </path>
</svg>