<svg width="72" height="72" viewBox="0 0 72 72" fill="none" xmlns="http://www.w3.org/2000/svg">
<path fill-rule="evenodd" clip-rule="evenodd" d="M13.8848 51.75H11.25C7.524 51.75 4.5 48.7282 4.5 45C4.5 39.0128 4.5 28.4873 4.5 22.5C4.5 20.709 5.21101 18.9922 6.47776 17.7277C7.74451 16.461 9.46125 15.75 11.25 15.75C19.044 15.75 34.9583 15.75 42.75 15.75C44.541 15.75 46.2578 16.461 47.5245 17.7277C48.789 18.9922 49.5 20.709 49.5 22.5V24.75H52.2C55.089 24.75 57.8678 25.8615 59.9603 27.8527C61.7288 29.538 63.9968 31.698 65.4255 33.0593C66.7508 34.3215 67.5 36.072 67.5 37.9035C67.5 40.5225 67.5 45.2092 67.5 47.7495C67.5 49.959 65.709 51.75 63.4995 51.75H58.1153C57.1883 54.3713 54.6885 56.25 51.75 56.25C48.8138 56.25 46.314 54.3713 45.3848 51.75H26.6153C25.6883 54.3713 23.1885 56.25 20.25 56.25C17.3138 56.25 14.814 54.3713 13.8848 51.75ZM20.25 47.25C21.492 47.25 22.5 48.258 22.5 49.5C22.5 50.742 21.492 51.75 20.25 51.75C19.0103 51.75 18 50.742 18 49.5C18 48.258 19.0103 47.25 20.25 47.25ZM51.75 47.25C52.992 47.25 54 48.258 54 49.5C54 50.742 52.992 51.75 51.75 51.75C50.5103 51.75 49.5 50.742 49.5 49.5C49.5 48.258 50.5103 47.25 51.75 47.25ZM38.25 33.75H15.75C14.5103 33.75 13.5 34.758 13.5 36C13.5 37.242 14.5103 38.25 15.75 38.25H38.25C39.492 38.25 40.5 37.242 40.5 36C40.5 34.758 39.492 33.75 38.25 33.75ZM38.25 27H20.25C19.0103 27 18 28.008 18 29.25C18 30.492 19.0103 31.5 20.25 31.5H38.25C39.492 31.5 40.5 30.492 40.5 29.25C40.5 28.008 39.492 27 38.25 27Z" fill="#FFD2A6"/>
</svg>
