<svg xmlns="http://www.w3.org/2000/svg" data-name="图层 1" viewBox="0 0 4000 3000" id="customer-rating"><defs><clipPath id="a"><path fill="none" d="M3462.60117,581.56957a89.65313,89.65313,0,0,0-89.60671-89.61748H1724.34506a89.65551,89.65551,0,0,0-89.61749,89.61748V2194.57975a89.65521,89.65521,0,0,0,89.61749,89.6121h1648.6494a89.65283,89.65283,0,0,0,89.60671-89.6121Z" clip-rule="evenodd"></path></clipPath><clipPath id="b"><rect width="1827.876" height="1792.236" x="1634.73" y="491.955" fill="none"></rect></clipPath><clipPath id="c"><path fill="none" d="M3328.36338,428.1164a89.6533,89.6533,0,0,0-89.61748-89.60671H1590.09649a89.651,89.651,0,0,0-89.60684,89.60671V2041.13092a89.653,89.653,0,0,0,89.60684,89.61209H3238.7459a89.65524,89.65524,0,0,0,89.61748-89.61209Z" clip-rule="evenodd"></path></clipPath><clipPath id="d"><path fill="none" d="M1874.41805,1674.892l237.2898,217.04116,281.79184-352.22626s-6.49125-34.44756,11.95987-91.09227c18.44009-56.64483,42.93015-168.30873,57.57047-54.93312,0,0,72.47964-113.25722,115.9483-83.137,0,0,42.55353-18.94626,39.11934,28.03161,0,0,41.06811-.25834,15.0172,52.04809,0,0,43.56536,1.84088-2.69122,79.757-46.24607,77.92686-46.43977,105.29106-105.948,143.74325l-294.49417,464.10226s-81.94226,153.41756-229.04414,47.30081c-147.11252-106.11682-319.50105-246.87811-319.50105-246.87811Z" clip-rule="evenodd"></path></clipPath><clipPath id="e"><path fill="none" d="M815.89069,1665.34357s94.10536-144.03392,301.0793-144.27071c206.98669-.2368,401.8307,4.47822,401.8307,4.47822s142.19317-18.03115,251.57493,61.72568,115.67918,98.111,115.67918,98.111l-175.56412,215.24338,42.29519,35.35191s22.21856,92.95456-70.47766,178.884l-38.37676,352.7624L993.30324,2471.592l-94.64255-516.23221L843.79214,2010.239,670.44776,1821.87548Z" clip-rule="evenodd"></path></clipPath><clipPath id="f"><path fill="none" d="M1156.03559,1146.7463s-2.41132-268.13116,236.74091-243.8135c191.78684,19.506,193.03547,139.15753,199.98966,201.38914,6.96483,62.23173,92.31947,72.017,27.93476,111.05036,0,0,28.77446,154.30351-86.96937,167.43672,0,0-1.17333,51.316,38.27992,80.62872,39.464,29.31283,64.43845,52.33876,73.77164,69.70249,0,0-345.40138,242.81231-662.53435,10.1621,0,0,61.77957-58.604,48.96935-113.52621-12.39023-53.11393-32.53138-113.99992,32.19775-153.61467C1153.635,1221.5621,1156.03559,1146.7463,1156.03559,1146.7463Z" clip-rule="evenodd"></path></clipPath><clipPath id="g"><path fill="none" d="M1552.02118,910.113s-9.93608,124.42037-107.60566,226.35279l3.7677,34.09237s-25.082-39.93761-68.32455-33.96319c-43.23173,5.97455-78.91728,104.41917,32.36988,131.19137,0,0,47.0855-.94731,64.47078,77.1626s42.17679,80.3705,94.171,115.916,124.065-44.82477,124.065-44.82477L1673.5887,998.90171Z" clip-rule="evenodd"></path></clipPath></defs><line x1="635.781" x2="633.916" y1="1037.914" y2="1066.817" fill="none" stroke="#f7e628" stroke-linecap="round" stroke-linejoin="round" stroke-width="9"></line><line x1="629.536" x2="627.67" y1="1132.816" y2="1161.709" fill="none" stroke="#f7e628" stroke-linecap="round" stroke-linejoin="round" stroke-width="9"></line><line x1="682.171" x2="658.604" y1="1135.917" y2="1119.081" fill="none" stroke="#f7e628" stroke-linecap="round" stroke-linejoin="round" stroke-width="9"></line><line x1="604.848" x2="581.281" y1="1080.542" y2="1063.706" fill="none" stroke="#f7e628" stroke-linecap="round" stroke-linejoin="round" stroke-width="9"></line><line x1="687.163" x2="661.295" y1="1071.974" y2="1084.999" fill="none" stroke="#f7e628" stroke-linecap="round" stroke-linejoin="round" stroke-width="9"></line><line x1="602.157" x2="576.287" y1="1114.624" y2="1127.649" fill="none" stroke="#f7e628" stroke-linecap="round" stroke-linejoin="round" stroke-width="9"></line><path fill="#f7bb28" fill-rule="evenodd" d="M651.68671,646.503a16.20117,16.20117,0,1,1-16.2,16.20117A16.20538,16.20538,0,0,1,651.68671,646.503Z"></path><path fill="none" stroke="#f7bc28" stroke-linecap="round" stroke-linejoin="round" stroke-width="9" d="M651.68671,646.503a16.20117,16.20117,0,1,1-16.2,16.20117A16.20538,16.20538,0,0,1,651.68671,646.503Z"></path><path fill="#faf8f0" fill-rule="evenodd" d="M3328.36338,428.1164a89.6533,89.6533,0,0,0-89.61748-89.60671H1590.09649a89.651,89.651,0,0,0-89.60684,89.60671V2041.13092a89.653,89.653,0,0,0,89.60684,89.61209H3238.7459a89.65524,89.65524,0,0,0,89.61748-89.61209Z"></path><g clip-path="url(#c)"><path fill="#43781e" fill-rule="evenodd" d="M3687.899,192.2366c0-9.47313-8.32122-17.16991-18.56939-17.16991H1441.74585c-10.24817,0-18.56939,7.69678-18.56939,17.16991V501.38186c0,9.47313,8.32122,17.17016,18.56939,17.17016H3669.32964c10.24817,0,18.56939-7.697,18.56939-17.17016Z"></path><circle cx="1619.119" cy="442.563" r="25.007" fill="#ff7f36"></circle><circle cx="1709.08" cy="442.563" r="25.007" fill="#f7bb28"></circle><circle cx="1799.699" cy="442.563" r="25.007" fill="#39b55d"></circle><path fill="#6eb282" fill-rule="evenodd" d="M1769.58981 655.47025a9.61081 9.61081 0 00-9.62386-9.61295h-89.72511a9.611 9.611 0 00-9.62385 9.61295V745.206a9.62989 9.62989 0 009.62385 9.61322H1759.966a9.62966 9.62966 0 009.62386-9.61322zM2303.80677 685.54722a11.98849 11.98849 0 00-11.98116-11.97039h-424.0172a11.97931 11.97931 0 00-11.97053 11.97039v29.571a11.98167 11.98167 0 0011.97053 11.98143h424.0172a11.99084 11.99084 0 0011.98116-11.98143z"></path><path fill="#ffdc63" fill-rule="evenodd" d="M1781.3665 855.86885a13.0338 13.0338 0 0123.55353 0c9.98982 21.03458 23.62882 49.76594 29.62492 62.41478a13.03629 13.03629 0 0010.09745 7.33081c13.8867 1.80855 45.41689 5.89912 68.51838 8.89178a13.02919 13.02919 0 017.27706 22.391c-16.92247 16.00735-40.0346 37.84917-50.20734 47.473a13.0214 13.0214 0 00-3.85391 11.8629c2.57282 13.76817 8.429 45.0186 12.71337 67.91548a13.03226 13.03226 0 01-19.04311 13.8436c-20.45324-11.15238-48.36646-26.38469-60.66-33.0804a13.029 13.029 0 00-12.47644 0c-12.29352 6.69571-40.20673 21.928-60.66 33.0804a13.03678 13.03678 0 01-19.05389-13.8436c4.2844-22.89688 10.14055-54.14731 12.72414-67.91548a13.05528 13.05528 0 00-3.86468-11.8629c-10.17274-9.62385-33.27409-31.46567-50.2072-47.473a13.0368 13.0368 0 017.27706-22.391c23.10135-2.99266 54.64232-7.08323 68.51824-8.89178a13.019 13.019 0 0010.09745-7.33081C1757.74846 905.63479 1771.38745 876.90343 1781.3665 855.86885zM2088.66037 855.86885a13.02518 13.02518 0 0123.54262 0c9.98982 21.03458 23.62882 49.76594 29.6357 62.41478a13.00222 13.00222 0 0010.09758 7.33081c13.87579 1.80855 45.41689 5.89912 68.51824 8.89178a13.03689 13.03689 0 017.27706 22.391c-16.93311 16.00735-40.03446 37.84917-50.2072 47.473a13.055 13.055 0 00-3.86468 11.8629c2.58346 13.76817 8.429 45.0186 12.72414 67.91548a13.0416 13.0416 0 01-19.054 13.8436c-20.45324-11.15238-48.36646-26.38469-60.65984-33.0804a13.02931 13.02931 0 00-12.47658 0c-12.29338 6.69571-40.20673 21.928-60.66 33.0804a13.04143 13.04143 0 01-19.05376-13.8436c4.29517-22.89688 10.1512-54.14731 12.724-67.91548a13.02132 13.02132 0 00-3.85377-11.8629c-10.17287-9.62385-33.285-31.46567-50.20734-47.473a13.02919 13.02919 0 017.27706-22.391c23.10136-2.99266 54.63168-7.08323 68.51838-8.89178a13.03629 13.03629 0 0010.09745-7.33081C2065.03155 905.63479 2078.67055 876.90343 2088.66037 855.86885zM2394.95305 855.86885a13.03369 13.03369 0 0123.55339 0c9.98983 21.03458 23.61805 49.76594 29.62493 62.41478a13.03629 13.03629 0 0010.09731 7.33081c13.88683 1.80855 45.41716 5.89912 68.51851 8.89178a13.02919 13.02919 0 017.27706 22.391c-16.92233 16.00735-40.03446 37.84917-50.20747 47.473a13.02124 13.02124 0 00-3.85364 11.8629c2.57269 13.76817 8.42871 45.0186 12.7131 67.91548a13.03209 13.03209 0 01-19.043 13.8436c-20.45324-11.15238-48.37723-26.38469-60.65984-33.0804a13.05044 13.05044 0 00-12.48735 0c-12.28261 6.69571-40.20687 21.928-60.64933 33.0804a13.03673 13.03673 0 01-19.05376-13.8436c4.2844-22.89688 10.14068-54.14731 12.71337-67.91548a13.0214 13.0214 0 00-3.8539-11.8629c-10.17275-9.62385-33.2741-31.46567-50.20721-47.473a13.02919 13.02919 0 017.27706-22.391c23.10135-2.99266 54.64245-7.08323 68.51825-8.89178a13.01922 13.01922 0 0010.09757-7.33081C2371.33474 905.63479 2384.96322 876.90343 2394.95305 855.86885z"></path><path fill="#e6edc7" fill-rule="evenodd" d="M2701.00867 855.86885a13.02538 13.02538 0 0123.54288 0c9.98982 21.03458 23.62882 49.76594 29.62492 62.41478a13.03629 13.03629 0 0010.09732 7.33081c13.88683 1.80855 45.41715 5.89912 68.51851 8.89178a13.02919 13.02919 0 017.27706 22.391c-16.92234 16.00735-40.03473 37.84917-50.20747 47.473a13.02121 13.02121 0 00-3.85364 11.8629c2.57268 13.76817 8.4287 45.0186 12.7131 67.91548a13.03221 13.03221 0 01-19.043 13.8436c-20.45324-11.15238-48.36646-26.38469-60.66011-33.0804a13.02878 13.02878 0 00-12.47631 0c-12.29365 6.69571-40.20686 21.928-60.6601 33.0804a13.04149 13.04149 0 01-19.05376-13.8436c4.2844-22.89688 10.14042-54.14731 12.72414-67.91548a13.05562 13.05562 0 00-3.86468-11.8629c-10.17274-9.62385-33.27409-31.46567-50.2072-47.473a13.03671 13.03671 0 017.27705-22.391c23.10136-2.99266 54.64246-7.08323 68.51825-8.89178a13.01842 13.01842 0 0010.09732-7.33081C2677.37985 905.63479 2691.01884 876.90343 2701.00867 855.86885zM3009.13132 855.86885a13.02538 13.02538 0 0123.54288 0c9.98982 21.03458 23.62882 49.76594 29.62492 62.41478a13.03631 13.03631 0 0010.09732 7.33081c13.88683 1.80855 45.41716 5.89912 68.51851 8.89178a13.02919 13.02919 0 017.27706 22.391c-16.92234 16.00735-40.03473 37.84917-50.20747 47.473a13.02124 13.02124 0 00-3.85364 11.8629c2.57268 13.76817 8.42871 45.0186 12.7131 67.91548a13.03221 13.03221 0 01-19.043 13.8436c-20.45324-11.15238-48.36646-26.38469-60.65984-33.0804a13.02931 13.02931 0 00-12.47658 0c-12.29338 6.69571-40.20686 21.928-60.6601 33.0804a13.03673 13.03673 0 01-19.05376-13.8436c4.2844-22.89688 10.14042-54.14731 12.72414-67.91548a13.05562 13.05562 0 00-3.86468-11.8629c-10.17274-9.62385-33.27409-31.46567-50.2072-47.473a13.03671 13.03671 0 017.27706-22.391c23.10135-2.99266 54.64245-7.08323 68.51824-8.89178a13.01922 13.01922 0 0010.09758-7.33081C2985.5025 905.63479 2999.14176 876.90343 3009.13132 855.86885z"></path><path fill="#fff" fill-rule="evenodd" d="M2216.23477,1248.86177a14.249,14.249,0,0,0-14.23112-14.24189H1674.859a14.2512,14.2512,0,0,0-14.242,14.24189v684.31151a14.24211,14.24211,0,0,0,14.242,14.23125h527.14464a14.23987,14.23987,0,0,0,14.23112-14.23125Z"></path><rect width="381.531" height="258.126" x="1748.221" y="1347.042" fill="#f0f5d8"></rect><path fill="#378d72" fill-rule="evenodd" d="M1748.22145,1412.25089s79.76774,5.7484,94.86,77.647c15.08158,71.88765,69.65951,73.20106,83.77223,75.51554s92.45943,18.33246,106.36755,39.044H1749.707Z"></path><path fill="#6eb282" fill-rule="evenodd" d="M1842.72622,1604.45744s.40907-33.68316,50.50879-46.8809c50.08894-13.187,52.52167-29.01138,69.48711-58.92684,16.96543-29.90483,44.14671-56.55864,76.53828-61.87642,32.40221-5.31791,75.0204-17.89132,90.31723-89.90815v258.34593Z"></path><path fill="#e8f3dd" fill-rule="evenodd" d="M3153.85434,1252.5434A17.90143,17.90143,0,0,0,3135.963,1234.663H2473.66559a17.8989,17.8989,0,0,0-17.88029,17.88042v677.0129a17.9012,17.9012,0,0,0,17.88029,17.8912H3135.963a17.90372,17.90372,0,0,0,17.89133-17.8912Z"></path><ellipse cx="2615.966" cy="1436.289" fill="#ed9c1e" rx="61.457" ry="61.693"></ellipse><path fill="#ffdc63" fill-rule="evenodd" d="M2469.7904,1244.32981a13.03928,13.03928,0,0,1,18.09553-15.08159c21.14234,9.77445,50.01351,23.11213,62.7161,28.98971a13.07364,13.07364,0,0,0,12.455-.82892c11.8198-7.50308,38.65653-24.55458,58.324-37.0418a13.02765,13.02765,0,0,1,19.92577,12.54109c-2.75587,23.13368-6.52357,54.707-8.18114,68.61523a13.05716,13.05716,0,0,0,4.63946,11.583c10.78641,8.924,35.298,29.18353,53.25374,44.02819a13.03644,13.03644,0,0,1-5.78059,22.83236c-22.843,4.52119-54.03956,10.70021-67.77554,13.413a13.03422,13.03422,0,0,0-9.58088,7.99835c-5.15615,13.01468-16.84691,42.58573-25.4157,64.24463a13.0403,13.0403,0,0,1-23.49978,1.561c-11.36776-20.33484-26.87983-48.08669-33.70485-60.31556a13.029,13.029,0,0,0-10.5709-6.642c-13.962-.88267-45.70757-2.8635-68.949-4.3275a13.02317,13.02317,0,0,1-8.752-21.85259c15.82456-17.09461,37.42945-40.43289,46.94568-50.70261a13.0046,13.0046,0,0,0,3.05732-12.0997C2483.50482,1297.69118,2475.59254,1266.89292,2469.7904,1244.32981Z"></path><ellipse cx="2615.966" cy="1674.3" fill="none" stroke="#ed9c1e" stroke-linecap="round" stroke-linejoin="round" stroke-width="8" rx="61.457" ry="61.693"></ellipse><path fill="#39b55d" fill-rule="evenodd" d="M3004.91158 1401.46448a14.46715 14.46715 0 00-14.45714-14.45727H2759.02066a14.46259 14.46259 0 100 28.92518h231.43378A14.46933 14.46933 0 003004.91158 1401.46448zM3004.91158 1477.46439a14.467 14.467 0 00-14.45714-14.45714H2759.02066a14.45721 14.45721 0 100 28.91441h231.43378A14.46715 14.46715 0 003004.91158 1477.46439zM3004.91158 1637.08581a14.46715 14.46715 0 00-14.45714-14.45727H2759.02066a14.46259 14.46259 0 100 28.92518h231.43378A14.46933 14.46933 0 003004.91158 1637.08581zM3004.91158 1714.496a14.46715 14.46715 0 00-14.45714-14.45727H2759.02066a14.45721 14.45721 0 100 28.91441h231.43378A14.46021 14.46021 0 003004.91158 1714.496zM3004.91158 1790.9265a14.46715 14.46715 0 00-14.45714-14.45727H2759.02066a14.45721 14.45721 0 100 28.91441h231.43378A14.46712 14.46712 0 003004.91158 1790.9265z"></path></g><path fill="#ffceaa" fill-rule="evenodd" d="M696.56977,1793.11167,485.59245,2018.77556s-105.2061,106.20072,22.15621,204.30848c127.36125,98.10881,504.54381,368.74176,504.54381,368.74176L976.4131,2332.37322,735.87012,2120.637,895.6788,1957.1682Z"></path><path fill="#43781e" fill-rule="evenodd" d="M1713.65549,2683.95578c-67.754,64.78619-235.815-83.46858-432.73672-6.77215-210.86214,82.12514-305.38833-3.01093-329.89994-31.80589L993.30324,2471.592l650.62821-3.96258Z"></path><polygon fill="#f0ae83" fill-rule="evenodd" points="814.108 1975.652 735.87 2120.637 843.792 2010.239 814.108 1975.652"></polygon><path fill="#ffceaa" fill-rule="evenodd" d="M1874.41805,1674.892l237.2898,217.04116,281.79184-352.22626s-6.49125-34.44756,11.95987-91.09227c18.44009-56.64483,42.93015-168.30873,57.57047-54.93312,0,0,72.47964-113.25722,115.9483-83.137,0,0,42.55353-18.94626,39.11934,28.03161,0,0,41.06811-.25834,15.0172,52.04809,0,0,43.56536,1.84088-2.69122,79.757-46.24607,77.92686-46.43977,105.29106-105.948,143.74325l-294.49417,464.10226s-81.94226,153.41756-229.04414,47.30081c-147.11252-106.11682-319.50105-246.87811-319.50105-246.87811Z"></path><g clip-path="url(#d)"><line x1="2113.463" x2="2145.251" y1="1888.036" y2="1917.726" fill="none" stroke="#f0ae83" stroke-linecap="round" stroke-linejoin="round" stroke-width="9"></line></g><path fill="#f7bb28" fill-rule="evenodd" d="M815.89069,1665.34357s94.10536-144.03392,301.0793-144.27071c206.98669-.2368,401.8307,4.47822,401.8307,4.47822s142.19317-18.03115,251.57493,61.72568,115.67918,98.111,115.67918,98.111l-175.56412,215.24338,42.29519,35.35191s22.21856,92.95456-70.47766,178.884l-38.37676,352.7624L993.30324,2471.592l-94.64255-516.23221L843.79214,2010.239,670.44776,1821.87548Z"></path><g clip-path="url(#e)"><polygon fill="#e4892a" fill-rule="evenodd" points="898.661 1955.36 882.838 1850.295 733.282 2123.071 898.661 1955.36"></polygon><path fill="#e4892a" fill-rule="evenodd" d="M932.38485,1532.35441s304.81783,276.66776,703.21461,3.025l-564.91838-69.864Z"></path></g><line x1="1748.717" x2="1671.554" y1="1937.264" y2="1872.998" fill="none" stroke="#e4892a" stroke-linecap="round" stroke-linejoin="round" stroke-width="9"></line><path fill="#ef7256" fill-rule="evenodd" d="M2456.48491 1394.30582s-2.5083 3.35863-6.77114 9.22556c-1.91618 2.63734-4.21974 5.72685-6.70649 9.32228-1.22708 1.787-2.476 3.72473-3.77848 5.75917-2.66966 4.15536-5.47941 8.75184-8.63344 13.596a3.76147 3.76147 0 006.06076 4.45667c3.7246-4.51041 7.20163-8.70874 10.23739-12.69168 1.47465-1.94851 2.87414-3.82158 4.112-5.65156 2.48675-3.66008 4.4999-7.01871 6.1898-9.86065 3.77847-6.38362 5.70543-10.22662 5.70543-10.22662a3.7617 3.7617 0 00-6.41582-3.9292zM2630.04677 1389.494s-4.23051.366-15.10313 10.15119c-2.35744 2.11-5.03788 4.70424-8.01977 7.94447-1.744 1.88386-3.59556 3.98308-5.49019 6.3513-1.6255 2.03458-3.27229 4.28439-4.97323 6.728-4.0907 5.8777-8.40742 12.89628-13.34858 21.12066a2.87152 2.87152 0 104.70437 3.29411c4.62894-5.70543 8.90256-10.61414 12.69181-15.09236 3.11093-3.67086 5.94223-6.94329 8.43949-9.9575 2.57295-3.11106 4.769-5.94223 6.78191-8.40742 2.69122-3.30476 4.91962-6.0283 6.86812-8.2136 6.41582-7.18008 8.76249-8.332 8.76249-8.332a2.8696 2.8696 0 10-1.31329-5.5869zM2613.61958 1335.72339a314.99015 314.99015 0 00-23.0798 22.025c-4.4137 4.59662-9.26866 9.8391-14.22034 15.75977-4.2844 5.12409-8.62267 10.77564-12.99327 16.80394-5.94222 8.18127-11.81979 17.11616-17.60065 26.53541a3.22894 3.22894 0 005.37165 3.58465c8.6119-11.98129 17.61144-22.88611 25.92188-32.72521 2.21762-2.62656 4.38137-5.17783 6.45892-7.6538q5.1024-6.11988 9.6345-11.52912c14.608-17.36373 24.89926-28.07485 24.89926-28.07485a3.22584 3.22584 0 00-4.39215-4.72579zM2576.93285 1311.20113a313.46643 313.46643 0 00-26.406 21.04523c-5.16719 4.55352-10.77564 9.7207-16.3197 15.523-5.01633 5.25326-9.9575 11.034-14.75859 17.07306a249.99516 249.99516 0 00-19.24745 27.89179 2.68408 2.68408 0 004.47809 2.96034 288.03513 288.03513 0 0121.26061-25.29743c4.27362-4.61817 8.61189-9.06406 12.78853-13.38078 2.94956-3.04641 5.81318-6.0283 8.57956-8.90256 4.62895-4.80109 8.978-9.30073 12.95016-13.30536 11.76619-11.85212 20.02275-19.409 20.02275-19.409a2.68491 2.68491 0 00-3.348-4.19832z"></path><path fill="#693500" fill-rule="evenodd" d="M1156.03559,1146.7463s-2.41132-268.13116,236.74091-243.8135c191.78684,19.506,193.03547,139.15753,199.98966,201.38914,6.96483,62.23173,92.31947,72.017,27.93476,111.05036,0,0,28.77446,154.30351-86.96937,167.43672,0,0-1.17333,51.316,38.27992,80.62872,39.464,29.31283,64.43845,52.33876,73.77164,69.70249,0,0-345.40138,242.81231-662.53435,10.1621,0,0,61.77957-58.604,48.96935-113.52621-12.39023-53.11393-32.53138-113.99992,32.19775-153.61467C1153.635,1221.5621,1156.03559,1146.7463,1156.03559,1146.7463Z"></path><g clip-path="url(#f)"><path fill="#ffceaa" fill-rule="evenodd" d="M1552.02118,910.113s-9.93608,124.42037-107.60566,226.35279l3.7677,34.09237s-25.082-39.93761-68.32455-33.96319c-43.23173,5.97455-78.91728,104.41917,32.36988,131.19137,0,0,47.0855-.94731,64.47078,77.1626s42.17679,80.3705,94.171,115.916,124.065-44.82477,124.065-44.82477L1673.5887,998.90171Z"></path><g clip-path="url(#g)"><path fill="#f0ae83" fill-rule="evenodd" d="M1533.73155,1382.809s-22.9614-1.421-35.75006-12.63807c0,0,12.53031,19.05389,53.49067,46.21362,41.21857,27.332,71.33864-34.47989,71.33864-34.47989Z"></path></g><path fill="none" stroke="#f17453" stroke-linecap="round" stroke-linejoin="round" stroke-width="9" d="M1572.95878,1248.668s30.10929,14.78026,50.41181,7.99835"></path><path fill="none" stroke="#f0ae83" stroke-linecap="round" stroke-linejoin="round" stroke-width="9" d="M1361.77364,1180.591s43.49008-11.26,71.44639,30.76607"></path><path fill-rule="evenodd" d="M1566.00472,1092.84656c5.49006-.3552,10.571,9.21478,11.35686,21.35758.79658,12.15344-3.02486,22.294-8.50427,22.64918s-10.571-9.21465-11.35685-21.35745S1560.52531,1093.20188,1566.00472,1092.84656Z"></path><path fill="none" stroke="#000" stroke-linecap="round" stroke-linejoin="round" stroke-width="9" d="M1566.00472,1092.84656c5.49006-.3552,10.571,9.21478,11.35686,21.35758.79658,12.15344-3.02486,22.294-8.50427,22.64918s-10.571-9.21465-11.35685-21.35745S1560.52531,1093.20188,1566.00472,1092.84656Z"></path><path fill="#692700" fill-rule="evenodd" d="M1572.75418,1042.98377a17.82009,17.82009,0,0,0-5.80214-3.7677,16.76785,16.76785,0,0,0-6.66352-1.238c-3.5631.02155-7.7722,1.24876-12.28275,4.14445-6.42659,4.123-13.75739,12.132-20.91605,27.07365a3.2361,3.2361,0,0,0,5.71607,3.03577c5.71621-9.70993,11.17393-15.80288,16.03967-19.6351a22.05156,22.05156,0,0,1,11.92742-5.02724,19.56813,19.56813,0,0,1,4.855-.07543c1.93773.33378,3.14339.58135,3.14339.58135a3.23225,3.23225,0,1,0,3.98294-5.09176Z"></path><path fill="#240000" fill-rule="evenodd" d="M1359.96522,1306.583s-56.8815,94.36483,4.83341,159.20158c61.71492,64.84752,77.60386,71.56478,74.54668,154.16356l33.16647,4.715s23.34906-47.29-36.4067-118.06894C1376.36009,1435.8152,1326.4111,1438.00036,1359.96522,1306.583Z"></path><polygon fill="none" stroke="#fff" stroke-linecap="round" stroke-linejoin="round" stroke-width="9" points="1410.571 1244.933 1425.825 1372.356 1372.248 1367.415 1410.571 1244.933"></polygon></g><path fill="#240000" fill-rule="evenodd" d="M1152.537,1329.02768s-20.02262,3.72473-32.83283,25.2329c-7.63226,12.82086-12.74557,32.047-9.22543,60.77838,5.15641,42.03684,16.40564,66.21468,9.3546,94.67691-5.10254,20.62552-19.96874,43.38245-53.53364,77.098a4.8415,4.8415,0,1,0,6.92186,6.77114c34.54441-35.96545,49.36765-60.32634,54.33023-82.039,6.71727-29.42045-4.86574-54.14731-10.94791-97.31439-2.98176-21.1422-.97951-36.902,3.391-48.62493,10.23739-27.41808,33.38185-32.316,33.38185-32.316a2.17244,2.17244,0,0,0-.83969-4.263Z"></path><path fill="none" stroke="#ffdc63" stroke-linecap="round" stroke-linejoin="round" stroke-width="9" d="M1109.67138,380.6217a17.13232,17.13232,0,1,1-17.12693,17.13784A17.14107,17.14107,0,0,1,1109.67138,380.6217Z"></path><line x1="865.915" x2="1040.582" y1="995.629" y2="1027.945" fill="none" stroke="#ffbe52" stroke-linecap="round" stroke-linejoin="round" stroke-width="9"></line><line x1="1147.402" x2="1222.81" y1="631.217" y2="804.531" fill="none" stroke="#ffbe52" stroke-linecap="round" stroke-linejoin="round" stroke-width="9"></line></svg>