<svg xmlns="http://www.w3.org/2000/svg" enable-background="new 0 0 950 950" viewBox="0 0 950 950" id="e-shopping"><ellipse cx="475" cy="738.98" fill="#f6ecdf" rx="365.13" ry="33.51"></ellipse><path fill="#efddc5" d="M705.441 558.896h-447.78c-18.959 0-34.328-15.369-34.328-34.328V236.282c0-18.959 15.369-34.328 34.328-34.328h447.78c18.959 0 34.328 15.369 34.328 34.328v288.286c0 18.959-15.369 34.328-34.328 34.328z"></path><path fill="#fff" d="M702.384 543.732H260.718c-8.53 0-15.445-6.915-15.445-15.445V232.563c0-8.53 6.915-15.445 15.445-15.445h441.666c8.53 0 15.445 6.915 15.445 15.445v295.724c0 8.53-6.915 15.445-15.445 15.445z"></path><path fill="#efddc5" d="M393.102 443.781H288.009a4.077 4.077 0 0 1 0-8.152h105.092c7.298 0 13.236-5.938 13.236-13.236v-.35c0-7.298-5.938-13.236-13.236-13.236H288.009a4.076 4.076 0 1 1 0-8.151h105.092c11.792 0 21.387 9.594 21.387 21.387v.35c.001 11.793-9.594 21.388-21.386 21.388z"></path><path fill="#efddc5" d="M403.809 409.215a3.058 3.058 0 0 1-2.928-3.942L430 308.959H270.402l18.529 96.622a3.056 3.056 0 0 1-2.426 3.578 3.053 3.053 0 0 1-3.578-2.426l-19.922-103.887h175.229l-31.501 104.196a3.057 3.057 0 0 1-2.924 2.173z"></path><path fill="#efddc5" d="M434.117 308.96a3.058 3.058 0 0 1-2.879-4.085l12.068-33.84h28.581a3.056 3.056 0 1 1 0 6.113h-24.27l-10.621 29.78a3.057 3.057 0 0 1-2.879 2.032z"></path><path fill="#efddc5" d="M496.801 279.186H471.93a5.093 5.093 0 0 1-5.094-5.094 5.093 5.093 0 0 1 5.094-5.094h24.871a5.093 5.093 0 0 1 5.094 5.094 5.093 5.093 0 0 1-5.094 5.094z"></path><circle cx="395.93" cy="470.788" r="21.064" fill="#efddc5"></circle><circle cx="296.859" cy="470.788" r="21.064" fill="#efddc5"></circle><path fill="#efddc5" d="M386.101 470.788c0 5.429 4.401 9.829 9.829 9.829 5.428 0 9.829-4.4 9.829-9.829s-4.401-9.829-9.829-9.829c-5.428-.001-9.829 4.4-9.829 9.829zM286.008 470.788c0 5.429 4.401 9.829 9.829 9.829 5.429 0 9.83-4.4 9.83-9.829s-4.401-9.829-9.83-9.829c-5.428-.001-9.829 4.4-9.829 9.829zM382.657 406.691a3.058 3.058 0 0 1-3.015-3.581l16.342-93.964a3.061 3.061 0 0 1 3.535-2.489 3.058 3.058 0 0 1 2.488 3.535l-16.342 93.965a3.06 3.06 0 0 1-3.008 2.534zM359.675 404.648a3.054 3.054 0 0 1-3.052-3.257l6.129-92.944c.112-1.685 1.566-2.98 3.251-2.849a3.057 3.057 0 0 1 2.849 3.251l-6.129 92.944a3.06 3.06 0 0 1-3.048 2.855zM311.665 406.69a3.058 3.058 0 0 1-3.016-2.581l-14.81-93.965a3.059 3.059 0 0 1 2.544-3.495 3.062 3.062 0 0 1 3.495 2.544l14.81 93.965a3.057 3.057 0 0 1-3.023 3.532zM336.177 404.648a3.055 3.055 0 0 1-3.049-2.905l-4.596-92.944a3.056 3.056 0 0 1 2.902-3.204c1.668-.113 3.12 1.214 3.203 2.901l4.596 92.944a3.057 3.057 0 0 1-3.056 3.208z"></path><path fill="#efddc5" d="M424.017 341.324H276.943a3.056 3.056 0 1 1 0-6.113h147.075a3.056 3.056 0 1 1-.001 6.113zM411.761 374.007H282.049a3.056 3.056 0 1 1 0-6.113h129.712a3.055 3.055 0 0 1 3.056 3.057 3.054 3.054 0 0 1-3.056 3.056zM512.848 277.77h181.061v7.428H512.848zM512.848 327.241h181.061v7.428H512.848zM512.848 376.711h181.061v7.428H512.848zM512.848 426.181h181.061v7.428H512.848zM512.848 475.652h181.061v7.428H512.848z"></path><path fill="#755d3d" d="M536.159 501.266c1.997-1.95 10.101-25.028.032-33.172-18.905-15.293-9.669-26.013-23.244-43.737-11.04-14.417-43.66-16.125-53.226-8.877-9.567 7.246-10.932 20.832-13.276 27.002-3.614 9.514-10.288 10.19-13.276 20.462-3.9 13.404.425 15.989 2.367 30.104s-19.91 21.669-5.851 48.243c14.058 26.574 61.473 50.561 89.437 40.775 27.964-9.786 22.851-41.429 16.113-55.384s-8.396-16.319.924-25.416z"></path><path fill="#f43b5f" d="M532.719 708.161c-18.391 9.772-84.837 8.189-84.837 8.189-1.756-18.395-18.614-75.199-22.711-114.764-5.149-27.535 2.831-21.459 8.436-62.574.038-.277 33.402-9.048 33.402-9.048l28.478 1.096s25.805 2.076 34.008 7.454c.57.373 3.837 46.841 1.283 79.761-1.741 22.448-4.288 40.567-4.125 55.405.236 21.563 6.066 34.481 6.066 34.481z"></path><path fill="#755d3d" d="M548.024 755.305s-128.546 14.868-170.546-29.017c0 0-19.695-20.401-9.088-40.625 6.009-11.457 23.937-18.486 23.937-18.486s19.331 2.315 37.693-1.125 108.713 11.403 131.729 1.87c27.964-11.58 58.581 73.488-13.725 87.383z"></path><path fill="#f43b5f" d="M536.109 593.7c.985 29.073-27.881 37.046-60.068 37.046s-58.28-14.241-58.28-31.808 21.398-41.212 53.568-42.283c40.265-1.34 64.027 14.777 64.78 37.045z"></path><path fill="#fcc397" d="M470.3 503.664s-.679 4.851-1.725 11.54c-1.914 12.241-1.413 10.622-2.316 17.221-.786 5.74 1.329 24.152 16.78 24.152 17.801 0 16.498-14.417 17.056-21.024.552-6.548-.712-7.754.46-22.688.634-8.082 1.094-13.973 1.094-13.973l-31.349 4.772z"></path><path fill="#ddab84" d="M500.612 512.594c.6-7.903 1.036-13.702 1.036-13.702l-31.349 4.771s-.791 4.563-1.665 11.017c12.71 7.373 24.138 5.047 31.978-2.086z"></path><path fill="#fcc397" d="M482.174 432.445s-12.482 2.151-20.694 13.39c-8.214 11.239-15.191 45.206 9.09 62.466 24.281 17.261 44.953-4.347 46.403-26.375 1.447-22.03-1.774-51.693-34.799-49.481z"></path><path fill="#fcc397" d="M460.027 478.298c1.674 5.272.142 10.462-3.421 11.593-3.563 1.131-7.808-2.225-9.482-7.496-1.673-5.271-.142-10.462 3.421-11.593 3.563-1.131 7.808 2.225 9.482 7.496zM512.705 475.268c-1.674 5.272-.142 10.462 3.421 11.593 3.563 1.131 7.808-2.225 9.482-7.496 1.673-5.271.142-10.462-3.421-11.593-3.563-1.131-7.808 2.225-9.482 7.496zM470.364 695.14c-.482-.857.621-1.028 2.477-.825-5.17-2.584-10.463-7.249-10.266-8.464.244-1.499 8.268 4.236 14.211 5.429 5.944 1.193 12.674 3.383 12.71 2.889.059-.792-8.036-2.278-14.063-3.594-6.026-1.316-23.895-19.115-8.372-9.598 15.523 9.518 37.259 4.995 33.347 1.057-3.912-3.937-12.203-7.061-8.957-9.028 3.245-1.966 13.393 5.164 22.282 8.49 1.026.384 3.475 2.383 6.308 4.781a4.578 4.578 0 0 0 5.251.468l44.211-28.965-27.313-34.461 32.311-27.328s40.708 46.779 27.379 72.714c-5.32 10.352-59.16 33.742-84.201 38.128-24.78 4.339-45.243-8.019-47.315-11.693z"></path><path fill="#f43b5f" d="M529.495 538.513c11.936 5.695 47.942 60.386 47.942 60.386l-34.372 33.675-22.69-29.618s-5.564-71.451 9.12-64.443z"></path><path fill="#fcc397" d="M492.739 695.639c.482-.857-.621-1.028-2.477-.825 5.17-2.584 10.463-7.249 10.266-8.464-.244-1.499-8.268 4.236-14.211 5.429-5.944 1.193-12.674 3.383-12.71 2.889-.059-.792 8.036-2.278 14.063-3.594 6.026-1.316 23.895-19.115 8.372-9.598-15.523 9.518-37.259 4.995-33.347 1.057 3.912-3.937 12.203-7.061 8.957-9.028-3.245-1.966-13.393 5.164-22.282 8.49-1.026.383-3.475 2.383-6.308 4.781a4.578 4.578 0 0 1-5.251.468l-44.21-28.965 27.313-34.461-32.311-27.328s-40.708 46.779-27.379 72.714c5.32 10.352 59.16 33.742 84.201 38.128 24.779 4.339 45.242-8.019 47.314-11.693z"></path><path fill="#f43b5f" d="M433.607 539.011c-11.936 5.695-47.942 60.386-47.942 60.386l34.372 33.675 22.69-29.618c0 .001 5.564-71.451-9.12-64.443z"></path><path fill="#aeba3e" d="M558.804 770.958H396.696a13.258 13.258 0 0 1-13.145-11.526l-14.683-111.368c-1.047-7.942 5.134-14.992 13.145-14.992h191.474c8.011 0 14.192 7.05 13.145 14.992l-14.683 111.368a13.26 13.26 0 0 1-13.145 11.526z"></path><path fill="#755d3d" d="M505.526 450.101c-26.223-1.183-19.989 18.179-51.613 20.481-14.426-21.859 18.469-71.543 62.611-27.961 15.141 14.948 1.513 25.881 1.513 25.881l-3.436 11.845s.3-8.892-2.863-12.302c-9.313-10.04-6.212-17.944-6.212-17.944z"></path><circle cx="477.75" cy="702.015" r="23.958" fill="#fff"></circle><path fill="#aeba3e" d="M807.176 491.988h-97.022c-12.94 0-23.429-10.49-23.429-23.429v-35.57c0-12.939 10.49-23.429 23.429-23.429h97.022c12.94 0 23.429 10.49 23.429 23.429v35.57c0 12.94-10.489 23.429-23.429 23.429z"></path><path fill="#aeba3e" d="M714.425 507.895v-33.086h43.253z"></path><path fill="#fff" d="M708.264 428.39h100.803v4.369H708.264zM708.264 448.59h100.803v4.369H708.264zM708.264 468.79h100.803v4.369H708.264z"></path><path fill="#aeba3e" d="M286.132 269.208H189.11c-12.939 0-23.429-10.49-23.429-23.429v-35.57c0-12.939 10.49-23.429 23.429-23.429h97.022c12.94 0 23.429 10.49 23.429 23.429v35.57c0 12.94-10.49 23.429-23.429 23.429z"></path><path fill="#aeba3e" d="M193.381 285.115v-33.086h43.252z"></path><path fill="#fff" d="M187.219 205.61h100.803v4.369H187.219zM187.219 225.81h100.803v4.369H187.219zM187.219 246.01h100.803v4.369H187.219z"></path><path fill="#aeba3e" d="M769.357 302.274c-2.116 0-4.078-.362-5.891-1.087-1.812-.724-3.383-1.706-4.712-2.946a14.1 14.1 0 0 1-3.172-4.349c-.786-1.662-1.178-3.458-1.178-5.393 0-1.872.392-3.655 1.178-5.347a13.494 13.494 0 0 1 3.172-4.35c1.329-1.206 2.9-2.174 4.712-2.9 1.813-.724 3.775-1.086 5.891-1.086 2.053 0 4.001.362 5.844 1.086 1.843.726 3.428 1.694 4.759 2.9a13.506 13.506 0 0 1 3.171 4.35 12.53 12.53 0 0 1 1.178 5.347c0 1.935-.391 3.731-1.178 5.393a14.113 14.113 0 0 1-3.171 4.349c-1.33 1.24-2.916 2.222-4.759 2.946a15.819 15.819 0 0 1-5.844 1.087zm-9.879 33.53 25.555-29.814 23.563-30.992 5.529 4.894-24.741 29.271-24.378 31.536-5.528-4.895zm9.879-39.601c.906 0 1.736-.212 2.492-.634a7.605 7.605 0 0 0 2.038-1.676 7.563 7.563 0 0 0 1.404-2.447 8.718 8.718 0 0 0 .498-2.946c0-2.114-.632-3.91-1.903-5.391-1.268-1.479-2.779-2.221-4.53-2.221-.906 0-1.738.212-2.493.634a7.652 7.652 0 0 0-2.04 1.676 7.593 7.593 0 0 0-1.404 2.402 8.343 8.343 0 0 0-.498 2.899c0 2.117.634 3.928 1.903 5.438 1.269 1.511 2.78 2.266 4.533 2.266zm34.978 44.766c-2.115 0-4.077-.362-5.89-1.086-1.811-.725-3.384-1.693-4.712-2.901a13.6 13.6 0 0 1-3.171-4.302c-.787-1.662-1.178-3.458-1.178-5.394 0-1.931.391-3.729 1.178-5.391a14.153 14.153 0 0 1 3.171-4.351c1.328-1.236 2.901-2.22 4.712-2.945 1.813-.725 3.775-1.087 5.89-1.087 2.115 0 4.079.362 5.891 1.087 1.812.725 3.4 1.708 4.756 2.945 1.361 1.24 2.418 2.689 3.173 4.351s1.132 3.459 1.132 5.391c0 1.936-.377 3.732-1.132 5.394a12.745 12.745 0 0 1-3.173 4.302c-1.357 1.209-2.944 2.177-4.756 2.901-1.811.724-3.776 1.086-5.891 1.086zm0-6.071a4.99 4.99 0 0 0 2.492-.635 7.61 7.61 0 0 0 2.041-1.675 7.613 7.613 0 0 0 1.404-2.403c.331-.904.498-1.87.498-2.899a8.334 8.334 0 0 0-.544-3.035 8.816 8.816 0 0 0-1.404-2.446 6.294 6.294 0 0 0-2.038-1.631 5.417 5.417 0 0 0-2.449-.59c-.905 0-1.738.213-2.491.635a7.628 7.628 0 0 0-2.038 1.676 7.46 7.46 0 0 0-1.404 2.446 8.729 8.729 0 0 0-.5 2.944c0 2.117.634 3.914 1.904 5.394 1.268 1.481 2.777 2.219 4.529 2.219zM119.395 360.677h83.311v52.962h-83.311z"></path><path fill="#839d5b" d="m161.05 397.068-41.655-36.391h83.311z"></path><path fill="#aeba3e" d="m161.05 518.527 8.19 16.594 18.313 2.661-13.252 12.917 3.128 18.238-16.379-8.611-16.379 8.611 3.128-18.238-13.251-12.917 18.313-2.661zM676.983 177.511l7.632 15.465 17.066 2.48-12.349 12.037 2.915 16.998-15.264-8.025-15.265 8.025 2.915-16.998-12.349-12.037 17.066-2.48zM668.163 612.106a3.4 3.4 0 0 1-2.129-.747l-12.518-10.015a3.406 3.406 0 0 1-.532-4.79 3.406 3.406 0 0 1 4.79-.533l10.506 8.404 25.233-23.909a3.404 3.404 0 0 1 4.754.792 3.405 3.405 0 0 1-.793 4.754l-27.329 25.409a3.417 3.417 0 0 1-1.982.635z"></path><path fill="#839d5b" d="M717.444 753.296s-14.577-27.377-21.13-20.824c-6.553 6.553-14.652-7.705-24.66-10.565 0 0-34.756-9.532-34.756-3.177s9.234 10.353 7.864 15.569c-2.463 9.373 21.288 6.593 15.569 8.499-5.719 1.907-2.78 10.498 8.658 10.498h48.455z"></path><path fill="#738950" d="M717.444 753.296s-14.577-27.377-21.13-20.824c-6.553 6.553-14.652-7.705-24.66-10.565 0 0-7.56-2.073-15.629-3.641.811 8.223 17.462 5.173 17.462 7.568 0 3.369-10.395-3.701-14.03 5.923-2.961 7.839 13.027 20.732 21.252 21.539h36.735z"></path><path fill="#839d5b" d="M699.333 753.125s-24.069-57.669-12.868-68.869c11.2-11.2 18.826.238 23.353-4.29 4.528-4.528-16.681-35.269-3.812-48.137 12.868-12.869 19.779 12.153 27.166 4.766 7.387-7.388 5.243-62.912 25.26-58.145 20.017 4.766-7.626 58.145 0 58.145s15.251-15.728 22.877-.477-40.034 50.52-18.587 50.52 16.681 14.774 11.438 26.213c-5.243 11.438-35.269 40.444-35.269 40.444l-39.558-.17z"></path><path fill="#738950" d="M766.711 686.835c-.773 3.335-1.534 5.784-2.37 6.621-4.133 4.133-6.012-6.012-17.284-3.805-3.172.621-5.425 5.991-7.025 13.386-8.009.909-13.235 7.396-16.622 15.45-.695-2.673-1.814-4.981-3.5-6.667-10.028-10.027-12.964-2.207-21.981 0-6.416 1.571.292-18.756-1.475-32.646-2.947.141-6.271 1.364-9.989 5.082-11.201 11.2 12.868 68.869 12.868 68.869l18.106.079.005.093h21.447s30.026-29.006 35.269-40.444c4.888-10.667 9.363-24.235-7.449-26.018z"></path><path fill="#fff" d="M780.985 635.491c-8.801 11.868-24.618 31.547-37.669 38.847 8.06-42.81 14.063-83.629 15.793-95.703a10.954 10.954 0 0 0-1.398-.332c-1.292 9.003-5.055 34.603-10.342 65.265-2.695-9.716-5.899-21.422-8.198-30.108-.193 1.158-.381 2.304-.568 3.429 3.189 11.949 7.301 26.753 8.196 29.969-.391 2.25-.791 4.524-1.197 6.818l-9.692-23.107c-.21.765-.428 1.478-.656 2.134l9.886 23.568c-2.167 12.137-4.537 24.782-7.058 37.297-11.751-9.768-22.768-45.849-27.895-64.769-.432.191-.872.425-1.32.703 5.247 19.449 16.516 56.224 28.897 65.639-3.881 19.158-8.11 37.946-12.498 54.064-11.183-7.667-26.683-49.172-33.535-68.825-.424.202-.855.432-1.292.695 6.983 20.102 22.727 62.211 34.43 69.578a453.79 453.79 0 0 1-.719 2.578l1.517.007c1.8-6.387 3.63-13.448 5.492-21.18 9.837-4.839 34.449-26.196 47.113-37.458a9.573 9.573 0 0 0-.496-1.484c-12.048 10.711-35.837 31.391-46.176 37.097 3.586-15.058 7.285-32.592 11.088-52.576l.283-1.493c13.422-6.918 29.559-26.823 38.707-39.143a7.41 7.41 0 0 0-.373-.883 19.29 19.29 0 0 0-.32-.627z"></path><path fill="#aeba3e" d="M653.513 665.729c9-8.999 27.709 18.051 27.709 18.051s4.534-6.102 11.484-3.815c14.491 4.768.193 39.481 7.818 37.614 7.626-1.866 10.108-8.479 18.588 0 8.479 8.48 0 35.547 0 35.547l-35.619.171s-23.241-8.75-19.667-18.282c3.575-9.532 10.485-6.434 10.485-9.77 0-3.337-22.162-3.607-20.732-14.791 1.43-11.184 11.438-5.465 11.438-8.801 0-3.337-17.581-29.848-11.504-35.924z"></path><path fill="#fff" d="M713.626 713.712a6.504 6.504 0 0 0-1.431-.32c-.079 5.242-.904 25.456-8.844 30.69-5.16-12.004-12.48-25.748-21.936-41.171a536.707 536.707 0 0 0-6.225-9.9c.92-4.602 1.378-9.857 1.558-15.063a106.02 106.02 0 0 0-1.38-1.634c-.122 5.1-.499 10.311-1.306 14.951a611.537 611.537 0 0 0-4.12-6.261l-5.81-18.954a19.814 19.814 0 0 0-1.798-.986l4.861 15.855a657.811 657.811 0 0 0-11.629-16.585 5.93 5.93 0 0 0-1.253.706c6.481 8.94 16.294 22.977 25.89 38.628a482.303 482.303 0 0 1 2.882 4.762c-3.198 2.059-11.817-1.913-18.647-5.818-.516.256-1.339.29-2.308.326 5.433 3.245 13.454 7.437 18.635 7.437 1.186 0 2.223-.221 3.047-.722a408.81 408.81 0 0 1 4.805 8.318c-8.218 1.389-26.355-2.364-34.741-4.285.205.596.491 1.15.847 1.668 7.445 1.683 20.636 4.346 29.546 4.346 1.929 0 3.658-.125 5.084-.411 7.013 12.6 12.378 23.957 16.027 33.9l1.591-.008c-.908-2.5-1.925-5.089-3.053-7.768 8.683-5.405 9.621-25.781 9.708-31.701z"></path><path fill="#aeba3e" d="M738.891 753.296s0-56.688 9.532-58.555c9.532-1.867 4.766 10.803 8.261 7.308 3.495-3.495 5.401-40.232 14.934-36.321 9.532 3.912 3.894 13.761 10.526 12.491 6.632-1.271 2.819-25.101 16.481-27.643 13.663-2.542 6.355 12.391 1.907 19.381-4.449 6.99 7.392 1.242 11.756 8.896 10.009 17.555-33.441 26.77-28.914 31.297 4.528 4.528 26.055-6.831 23.83 5.879-2.224 12.709-49.566 37.267-49.566 37.267h-18.747z"></path><path fill="#839d5b" d="M725.864 753.125s-2.984-40.908 10.264-42.974c13.248-2.065 7.211 14.232 13.884 11.803 6.672-2.429 6.355-24.432 21.606-23.122 15.251 1.311-4.448 18.746 4.766 18.746s-3.324 10.489-3.324 18.786c0 8.298 24.32-9.232 27.223 2.017 4.134 16.019-24.852 14.915-24.852 14.915l-49.567-.171z"></path><path fill="#fff" d="M790.065 751.67c-9.962-2.235-31.141-5.089-39.554.36-.291.399-.583.791-.874 1.177l-1.849-.006a107.887 107.887 0 0 0 3.965-5.498c-3.092-9.336-2.786-19.942-2.305-25.581l.066-.016h.002c.088-.022.179-.047.273-.077l.022-.007.051-.016.03-.01.043-.015.075-.027.071-.027.02-.008.052-.021.022-.009.049-.021.024-.01.064-.029.03-.015a.608.608 0 0 1 .037-.017l.035-.017.03-.015.038-.02.023-.013c.049-.026.097-.053.145-.081l.014-.008.048-.029.009-.006a5.04 5.04 0 0 0 .216-.143l.001-.001c-.484 5.064-.961 15.417 1.83 24.713 1.7-2.59 3.337-5.282 4.902-8.013-3.291-3.076-2.984-15.354-2.309-23.989l.003-.006.322-.774.004-.009.071-.172c.452-1.088.919-2.21 1.42-3.325-1.065 10.421-1.445 23.978 1.213 27.001 8.384-14.898 14.587-30.649 17.001-37.117.49.253.886.548 1.201.878-2.164 5.79-7.004 18.068-13.522 30.644-3.574 6.896-7.123 12.905-10.636 18.016 9.835-4.747 34.469-.945 41.287 1.067-1.155.513-2.393.94-3.66 1.292z"></path><path fill="#839d5b" d="M232.556 753.296s14.577-27.377 21.13-20.824c6.553 6.553 14.652-7.705 24.66-10.565 0 0 34.756-9.532 34.756-3.177s-9.234 10.353-7.864 15.569c2.463 9.373-21.288 6.593-15.569 8.499 5.719 1.907 2.78 10.498-8.658 10.498h-48.455z"></path><path fill="#738950" d="M232.556 753.296s14.577-27.377 21.13-20.824c6.553 6.553 14.652-7.705 24.66-10.565 0 0 7.56-2.073 15.629-3.641-.811 8.223-17.462 5.173-17.462 7.568 0 3.369 10.395-3.701 14.03 5.923 2.961 7.839-13.027 20.732-21.252 21.539h-36.735z"></path><path fill="#839d5b" d="M250.667 753.125s24.069-57.669 12.868-68.869c-11.2-11.2-18.826.238-23.353-4.29-4.528-4.528 16.681-35.269 3.812-48.137-12.868-12.869-19.779 12.153-27.166 4.766-7.387-7.388-5.243-62.912-25.26-58.145-20.017 4.766 7.626 58.145 0 58.145s-15.251-15.728-22.877-.477 40.034 50.52 18.587 50.52-16.681 14.774-11.438 26.213c5.243 11.438 35.269 40.444 35.269 40.444l39.558-.17z"></path><path fill="#738950" d="M183.289 686.835c.774 3.335 1.534 5.784 2.37 6.621 4.133 4.133 6.012-6.012 17.284-3.805 3.172.621 5.425 5.991 7.025 13.386 8.009.909 13.235 7.396 16.622 15.45.695-2.673 1.814-4.981 3.5-6.667 10.028-10.027 12.964-2.207 21.981 0 6.416 1.571-.292-18.756 1.475-32.646 2.947.141 6.271 1.364 9.989 5.082 11.201 11.2-12.868 68.869-12.868 68.869l-18.106.079-.005.093h-21.447s-30.026-29.006-35.269-40.444c-4.888-10.667-9.363-24.235 7.449-26.018z"></path><path fill="#fff" d="M169.015 635.491c8.801 11.868 24.618 31.547 37.669 38.847-8.06-42.81-14.063-83.629-15.793-95.703a10.954 10.954 0 0 1 1.398-.332c1.292 9.003 5.055 34.603 10.342 65.265 2.695-9.716 5.899-21.422 8.198-30.108.193 1.158.381 2.304.568 3.429-3.189 11.949-7.301 26.753-8.196 29.969.391 2.25.791 4.524 1.197 6.818l9.692-23.107c.21.765.428 1.478.656 2.134l-9.886 23.568c2.168 12.137 4.537 24.782 7.058 37.297 11.751-9.768 22.768-45.849 27.895-64.769.433.191.872.425 1.32.703-5.247 19.449-16.516 56.224-28.897 65.639 3.881 19.158 8.11 37.946 12.498 54.064 11.183-7.667 26.683-49.172 33.535-68.825.424.202.855.432 1.292.695-6.983 20.102-22.727 62.211-34.43 69.578.239.867.479 1.727.719 2.578l-1.517.007c-1.8-6.387-3.63-13.448-5.492-21.18-9.837-4.839-34.449-26.196-47.113-37.458a9.573 9.573 0 0 1 .496-1.484c12.048 10.711 35.837 31.391 46.176 37.097-3.586-15.058-7.285-32.592-11.088-52.576l-.283-1.493c-13.422-6.918-29.559-26.823-38.707-39.143a7.41 7.41 0 0 1 .373-.883c.104-.214.212-.424.32-.627z"></path><path fill="#aeba3e" d="M296.487 665.729c-8.999-8.999-27.709 18.051-27.709 18.051s-4.534-6.102-11.484-3.815c-14.491 4.768-.193 39.481-7.818 37.614-7.626-1.866-10.108-8.479-18.588 0-8.479 8.48 0 35.547 0 35.547l35.619.171s23.241-8.75 19.667-18.282c-3.575-9.532-10.485-6.434-10.485-9.77 0-3.337 22.162-3.607 20.733-14.791-1.43-11.184-11.438-5.465-11.438-8.801-.001-3.337 17.58-29.848 11.503-35.924z"></path><path fill="#fff" d="M236.374 713.712a6.504 6.504 0 0 1 1.431-.32c.079 5.242.904 25.456 8.844 30.69 5.16-12.004 12.48-25.748 21.936-41.171a536.707 536.707 0 0 1 6.225-9.9c-.92-4.602-1.377-9.857-1.558-15.063.437-.528.898-1.075 1.38-1.634.122 5.1.499 10.311 1.306 14.951a611.537 611.537 0 0 1 4.12-6.261l5.81-18.954a19.814 19.814 0 0 1 1.798-.986l-4.861 15.855a657.811 657.811 0 0 1 11.629-16.585 5.93 5.93 0 0 1 1.253.706c-6.481 8.94-16.294 22.977-25.89 38.628a482.303 482.303 0 0 0-2.882 4.762c3.198 2.059 11.817-1.913 18.647-5.818.516.256 1.339.29 2.308.326-5.433 3.245-13.454 7.437-18.636 7.437-1.186 0-2.223-.221-3.047-.722a408.81 408.81 0 0 0-4.805 8.318c8.218 1.389 26.355-2.364 34.741-4.285a6.896 6.896 0 0 1-.847 1.668c-7.445 1.683-20.636 4.346-29.546 4.346-1.929 0-3.658-.125-5.084-.411-7.013 12.6-12.378 23.957-16.027 33.9l-1.591-.008c.908-2.5 1.925-5.089 3.053-7.768-8.682-5.405-9.62-25.781-9.707-31.701z"></path><path fill="#aeba3e" d="M211.109 753.296s0-56.688-9.532-58.555c-9.532-1.867-4.766 10.803-8.261 7.308-3.495-3.495-5.401-40.232-14.934-36.321-9.532 3.912-3.894 13.761-10.526 12.491-6.632-1.271-2.819-25.101-16.481-27.643-13.663-2.542-6.355 12.391-1.907 19.381 4.449 6.99-7.392 1.242-11.756 8.896-10.009 17.555 33.441 26.77 28.914 31.297-4.528 4.528-26.054-6.831-23.83 5.879 2.224 12.709 49.566 37.267 49.566 37.267h18.747z"></path><path fill="#839d5b" d="M224.136 753.125s2.984-40.908-10.264-42.974c-13.248-2.065-7.211 14.232-13.884 11.803-6.672-2.429-6.355-24.432-21.606-23.122-15.251 1.311 4.448 18.746-4.766 18.746s3.324 10.489 3.324 18.786c0 8.298-24.32-9.232-27.223 2.017-4.134 16.019 24.852 14.915 24.852 14.915l49.567-.171z"></path><path fill="#fff" d="M159.935 751.67c9.962-2.235 31.141-5.089 39.554.36.291.399.583.791.874 1.177l1.849-.006a107.887 107.887 0 0 1-3.965-5.498c3.092-9.336 2.786-19.942 2.305-25.581l-.066-.016h-.002a4.417 4.417 0 0 1-.273-.077l-.022-.007-.051-.016-.03-.01-.043-.015-.075-.027-.071-.027-.02-.008-.052-.021-.022-.009a2.405 2.405 0 0 1-.049-.021l-.024-.01-.064-.029-.03-.015a.608.608 0 0 0-.037-.017l-.035-.017-.03-.015-.038-.02-.023-.013a4.117 4.117 0 0 1-.145-.081l-.014-.008a1.225 1.225 0 0 1-.048-.029l-.009-.006a5.04 5.04 0 0 1-.216-.143l-.001-.001c.484 5.064.961 15.417-1.83 24.713-1.7-2.59-3.337-5.282-4.902-8.013 3.291-3.076 2.984-15.354 2.309-23.989l-.003-.006-.322-.774-.004-.009-.071-.172c-.452-1.088-.919-2.21-1.42-3.325 1.065 10.421 1.445 23.978-1.213 27.001-8.384-14.898-14.587-30.649-17.001-37.117a4.48 4.48 0 0 0-1.201.878c2.164 5.79 7.004 18.068 13.522 30.644 3.574 6.896 7.123 12.905 10.636 18.016-9.835-4.747-34.469-.945-41.287 1.067 1.155.513 2.393.94 3.66 1.292z"></path></svg>